<svg xmlns="http://www.w3.org/2000/svg" width="50.083495" height="50.083495" viewBox="0 0 13.251258 13.251258"><path class="st0" d="M4.917 6.63l-2.75 2.75 3.456 3.454c.556.556 1.456.556 2.012 0l3.452-3.455-2.753-2.747L6.63 4.917z" fill="#b3b3b3"/><path class="st1" d="M2.168 3.872L.418 5.618c-.557.557-.557 1.458 0 2.014l1.75 1.747 2.75-2.747L6.63 4.916 3.873 2.168z" fill="#ccc"/><path class="st2" d="M9.377 7.67l1.71 1.71 1.747-1.748c.556-.556.556-1.457 0-2.013l-.7-.702z" fill="#e6e6e6"/><path class="st2" d="M6.625 4.917l2.752-2.753-2.75 2.753 1.706 1.71z" fill="#b1d4e5"/><path class="st3" d="M8.332 6.626L9.378 7.67l2.755-2.754-1.045-1.044-1.71-1.708-2.752 2.753z" fill="#ccc"/><path class="st4" d="M9.377 2.168L7.63.418c-.556-.557-1.455-.557-2.012 0l-1.746 1.75 2.76 2.75z" fill="#999"/></svg>