<svg xmlns="http://www.w3.org/2000/svg" viewBox="0 0 151.39491 115.97624" height="78.751" width="78.751"><g transform="translate(0 4.778)"><circle r="75.697" cx="75.697" cy="53.21" fill="#e0b0ff" paint-order="stroke fill markers"/><g fill="#7851a9"><path d="M90.576 16.298a21.75 21.75 0 0 0-21.563 19.06h43.118a21.75 21.75 0 0 0-21.554-19.06z" paint-order="stroke fill markers"/><path d="M123.313 16.298a21.75 21.75 0 0 0-21.563 19.06h43.118a21.75 21.75 0 0 0-21.555-19.06z" paint-order="stroke fill markers"/><path d="M108.065 6.433a21.75 21.75 0 0 0-21.563 19.06h43.12a21.75 21.75 0 0 0-21.557-19.06z" paint-order="stroke fill markers"/></g><g fill="#7851a9"><path d="M25.9 40.863A22.61 22.61 0 0 0 3.483 60.675h44.822A22.61 22.61 0 0 0 25.9 40.863z" paint-order="stroke fill markers"/><path d="M59.93 40.863a22.61 22.61 0 0 0-22.416 19.812h44.822A22.61 22.61 0 0 0 59.93 40.863z" paint-order="stroke fill markers"/><path d="M44.08 30.607A22.61 22.61 0 0 0 21.664 50.42h44.82A22.61 22.61 0 0 0 44.08 30.606z" paint-order="stroke fill markers"/></g><path d="M21.665 50.42l52.33 70.135 49.318-104.257" fill="none" stroke="#7851a9" stroke-width="1.323" stroke-dasharray="7.9375, 7.9375"/></g></svg>