<svg xmlns="http://www.w3.org/2000/svg" xmlns:xlink="http://www.w3.org/1999/xlink" width="336.958px" height="343.349px" viewBox="0 0 89.153507 90.844449"><defs><linearGradient id="a"><stop offset="0" stop-color="#6d67f6"/><stop offset="1" stop-color="#0ffffb"/></linearGradient><linearGradient xlink:href="#a" id="c" gradientUnits="userSpaceOnUse" gradientTransform="translate(-645.924 -350.46) scale(.9236)" x1="-106.568" y1="117.626" x2="-9.491" y2="185.238"/><linearGradient id="b"><stop offset="0" stop-color="#93cdfd"/><stop offset="1" stop-color="#8ffdf6"/></linearGradient><linearGradient xlink:href="#b" id="d" gradientUnits="userSpaceOnUse" gradientTransform="translate(-644.077 -346.304) scale(.9236)" x1="-104.699" y1="205.152" x2="-104.699" y2="216.869"/></defs><g transform="matrix(.16634 0 0 .16634 170.554 56.567)"><path d="M-548.694-109.79c26.224 82.665 47.747 246.318-6.654 285.286-43.07 30.852-280.765 72.732-238.136-69.613 36.736-122.664-231.85-99.457-231.85-222.144 0-122.688 103.803-222.145 231.85-222.145s198.662 83.205 244.79 228.614z" fill="#6d05f6" paint-order="stroke fill markers"/><path d="M-633.356-262.57c0 42.416-38.73 104.03-79.042 104.03-40.312 0-84.336-60.218-84.336-102.634 0-42.417 41-78.897 81.31-78.897 40.312 0 82.068 35.083 82.068 77.5z" fill="url(#c)" paint-order="stroke fill markers"/><g transform="matrix(.77393 0 0 .77393 -657.125 -333.052)" fill="#3345b7" fill-opacity="1"><rect width="1.663" height="122.463" x="21.807" y="240.094" ry=".831" transform="rotate(15)" fill="#f9f9f9" paint-order="stroke fill markers"/><rect transform="rotate(165)" ry=".831" y="202.424" x="160.73" height="122.463" width="1.663" fill="#f9f9f9" paint-order="stroke fill markers"/><rect width="1.663" height="122.463" x="71.166" y="233.815" ry=".831" transform="scale(-1 1)" fill="#fff" paint-order="stroke fill markers"/></g><rect ry="0" y="-167.648" x="-740.778" height="21.644" width="55.158" fill="url(#d)" paint-order="stroke fill markers"/><path d="M-634.243-133.2l85.55 23.41-1.98 72.332-83.57-24.4z" fill="#6d5cf6" fill-opacity=".282" paint-order="stroke fill markers"/><path d="M-653.232-128.536l85.55 23.41-1.98 72.333-83.57-24.4z" fill="#6d5cf6" paint-order="stroke fill markers"/><path d="M-632.25-52.113l13.928 4.145 16.445 4.543-15.753 11.44z" fill="#6d5cf6" paint-order="stroke fill markers"/><rect transform="matrix(-.19492 .98082 -.9677 -.25214 0 0)" ry="2.004" y="597.308" x="57.926" height="43.282" width="4.344" fill-opacity=".302" paint-order="stroke fill markers"/><rect width="4.344" height="43.282" x="61.447" y="600.655" ry="2.004" transform="matrix(-.19492 .98082 -.9677 -.25214 0 0)" fill="#fff" paint-order="stroke fill markers"/><rect width="3.505" height="34.924" x="75.974" y="601.099" ry="1.617" transform="matrix(-.19492 .98082 -.9677 -.25214 0 0)" fill-opacity=".302" paint-order="stroke fill markers"/><rect transform="matrix(-.19492 .98082 -.9677 -.25214 0 0)" ry="1.617" y="603.8" x="78.815" height="34.924" width="3.505" fill="#fff" paint-order="stroke fill markers"/><rect transform="matrix(-.2115 .97738 -.97254 -.23272 0 0)" ry="2.156" y="582.741" x="79.576" height="46.575" width="4.329" fill-opacity=".302" paint-order="stroke fill markers"/><rect width="4.339" height="48.614" x="76.774" y="583.635" ry="2.25" transform="rotate(102.756) skewX(-.127)" fill="#fff" paint-order="stroke fill markers"/><g transform="translate(-875.323 64.626) scale(.22275)"><path d="M661.683-665.18L269.408-557.836l9.07 331.673 383.205-111.88z" fill="#ff856d" fill-opacity=".275" paint-order="stroke fill markers"/><path d="M748.754-643.79L356.48-536.443l9.07 331.674 383.204-111.88z" fill="#ff856d" paint-order="stroke fill markers"/><path d="M652.537-293.358l-63.86 19.003-75.404 20.834 72.232 52.46z" fill="#ff856d" paint-order="stroke fill markers"/><ellipse transform="scale(-1 1)" ry="32.072" rx="18.174" cy="-468.46" cx="-664.297" fill="#f9f9f9" paint-order="stroke fill markers"/><ellipse cx="-591.6" cy="-440.664" rx="18.174" ry="32.072" transform="scale(-1 1)" fill="#f9f9f9" paint-order="stroke fill markers"/><ellipse transform="scale(-1 1)" ry="32.072" rx="18.174" cy="-408.592" cx="-497.521" fill="#f9f9f9" paint-order="stroke fill markers"/></g><path d="M-577.993-230.68l88.632 24.253-2.05 74.94-86.583-25.28z" fill="#0fffc9" fill-opacity=".275" paint-order="stroke fill markers"/><path d="M-597.666-225.848l88.632 24.254-2.05 74.94-86.582-25.28z" fill="#0fffc9" paint-order="stroke fill markers"/><text style="line-height:1.25;-inkscape-font-specification:Comfortaa" x="560.249" y="5.9" transform="rotate(-163.282)" font-size="16.617" font-family="Comfortaa" letter-spacing="0" word-spacing="0" stroke-width=".415"><tspan x="560.249" y="5.9" style="-inkscape-font-specification:'Bebas Neue, Normal';font-variant-ligatures:normal;font-variant-caps:normal;font-variant-numeric:normal;font-feature-settings:normal;text-align:start" font-size="44.311" font-family="Bebas Neue" fill="#fff">&lt;/&gt;</tspan></text></g></svg>