<svg xmlns="http://www.w3.org/2000/svg" width="272.375" height="25.527" viewBox="0 0 72.065771 6.754052"><g fill="#fff"><path style="-inkscape-font-specification:'FreeSerif, Bold';font-variant-ligatures:normal;font-variant-caps:normal;font-variant-numeric:normal;font-feature-settings:normal;text-align:start" d="M22.336 1.367q-.42 0-.82.443-.125.148-.136.216v3.04q0 .478.295.592.102.035.228.057v.274h-2.71v-.275q.468-.08.558-.307.047-.137.047-.376V1.684q0-.443-.216-.568-.136-.068-.386-.102V.74h2.153v.854q.637-.98 1.673-.99.82 0 1.23.592.125.182.227.398.66-.808 1.263-.945.194-.046.41-.046.98 0 1.368.785.17.363.17.82v2.856q0 .49.25.592.126.046.32.057v.274h-2.71v-.275q.433-.034.524-.307.034-.137.034-.342V2.312q0-.83-.433-.923-.08-.024-.17-.024-.41 0-.832.444-.123.148-.135.216v3.04q0 .5.33.603.09.034.205.045v.274h-2.664v-.275q.433-.034.513-.33.032-.126.032-.32V2.312q0-.807-.398-.92-.102-.024-.216-.024zm7.732.022q0 .056.182.317.16.24.16.422 0 .443-.445.603-.16.057-.33.057-.615 0-.717-.546-.023-.103-.023-.206 0-.797.875-1.195.547-.24 1.276-.24 1.49 0 2.04.81.214.33.214.75v2.97q.023.275.24.286.08-.013.125-.047l.114-.114.17.238q-.674.615-1.277.65-.626 0-.83-.468-.058-.148-.103-.33-.922.775-1.8.798-.74 0-1.092-.57-.17-.296-.17-.638 0-1 1.525-1.627.42-.17 1.537-.512v-.83q0-.9-.74-.99-.113-.013-.216-.013-.512 0-.683.286-.033.068-.033.136zm1.66 3.46V3.2q-1.376.375-1.387 1.377 0 .57.377.73.102.032.205.032.386-.013.807-.49zm6.982-.103l.205.206q-.82 1.047-1.8 1.172-.193.023-.375.023-1.196 0-1.9-.945-.536-.74-.536-1.753 0-1.377.933-2.197.74-.65 1.753-.65.99 0 1.503.582.262.307.262.67 0 .57-.535.695-.114.023-.24.023-.613 0-.636-.797v-.022q-.012-.49-.058-.58-.125-.206-.42-.217-.615 0-.854.91-.102.434-.102.98 0 1.628.797 2.254.364.286.82.286.545 0 1-.444.092-.092.183-.194zm4.244-2.493q-.364 0-.718-.42-.193-.24-.284-.25-.376 0-.58.5-.114.274-.114.58v2.152q0 .616.238.763.17.1.592.136v.273h-3.016v-.274q.468-.08.558-.307.046-.138.046-.377v-3.35q0-.453-.25-.578-.14-.057-.354-.092V.74h2.14v.934q.65-.933 1.275-1.047.137-.023.262-.023.58 0 .83.478.09.194.09.41 0 .523-.42.706-.15.057-.297.057zm3.53-1.65q1.216 0 1.957.945.604.772.604 1.83 0 1.345-.9 2.142-.705.626-1.66.626-1.254 0-1.994-.968-.58-.762-.58-1.833 0-1.275.875-2.083.73-.66 1.697-.66zm.01.352q-.546 0-.73.582-.18.558-.18 2.015 0 1.707.42 2.082.182.16.478.16.557 0 .74-.672.147-.546.147-1.673 0-1.89-.4-2.312-.18-.182-.477-.182zm8.512 2.983q.18-.513.785-2.004.115-.308.115-.524 0-.273-.285-.354-.114-.022-.262-.045V.74h1.538v.274q-.308.058-.432.285-.07.113-.138.284L54.562 6.15H54.3l-1.16-3.53-1.425 3.53h-.273l-1.685-4.258q-.284-.695-.42-.797-.092-.057-.23-.08V.743h2.53v.273q-.423.08-.434.32 0 .296.66 1.866.013.034.024.057l.273.728.774-1.946-.068-.216q-.18-.615-.295-.706-.09-.07-.375-.102V.744h2.664v.273q-.49.035-.537.194-.012.047-.012.08 0 .15.253.98.216.763.444 1.673zm3.434-2.55q0 .056.182.317.16.24.16.422 0 .443-.446.603-.16.057-.33.057-.614 0-.717-.546-.024-.103-.024-.206 0-.797.877-1.196.546-.238 1.275-.238 1.49 0 2.037.808.216.33.216.75v2.972q.025.274.24.285.08-.013.127-.047l.113-.114.17.237q-.67.616-1.274.65-.626 0-.83-.467-.058-.148-.103-.33-.923.775-1.8.797-.74 0-1.092-.57-.17-.295-.17-.637 0-1 1.526-1.627.42-.17 1.537-.512v-.83q0-.9-.74-.99-.114-.013-.216-.013-.513 0-.684.285-.034.07-.034.137zm1.66 3.46V3.2q-1.376.375-1.387 1.377 0 .57.375.73.103.032.206.032.387-.013.808-.49zm6.445-2.596q-.364 0-.717-.42-.193-.24-.284-.25-.376 0-.58.5-.115.274-.115.58v2.152q0 .616.24.763.17.1.59.136v.273h-3.016v-.274q.466-.08.558-.307.045-.138.045-.377v-3.35q0-.453-.252-.578-.136-.057-.352-.092V.74h2.14v.934Q65.452.74 66.08.627q.137-.023.262-.023.58 0 .83.478.093.194.093.41 0 .523-.422.706-.147.056-.294.056zm2.595.945q.092 1.74.91 2.05.216.078.444.078.616 0 1.14-.57.08-.1.16-.192l.272.16q-.73 1.035-1.412 1.297-.353.126-.808.126-1.275 0-1.913-1.05-.43-.717-.43-1.707 0-1.526.932-2.3.614-.49 1.445-.49 1.9 0 2.118 2.448.012.08.012.148zm1.47-.593q-.035-1.093-.218-1.378-.17-.263-.512-.274-.502 0-.67.604-.104.42-.127 1.217h1.525z" font-weight="bold" word-spacing="0" letter-spacing="0" font-size="18.985" font-family="FreeSerif" stroke-width=".143"/><path d="M8.507 0L4.255 2.233l4.2 2.26L12.71 2.26zm4.202 2.26L8.455 4.494l4.202 2.26L16.91 4.52zM8.455 4.493l-4.202-2.26L0 4.466l4.202 2.26z" paint-order="stroke fill markers"/></g></svg>