<svg xmlns="http://www.w3.org/2000/svg" viewBox="0 0 19.507414 19.507414" height="19.50mm" width="19.50mm"><g fill="#ccc"><path d="M8.874.208c.533-.277 1.227-.278 1.76 0 2.68 1.374 5.36 2.746 8.038 4.12.503.258.84.767.835 1.294v8.265c.004.55-.366 1.07-.898 1.32-2.67 1.368-5.34 2.736-8.01 4.102-.544.28-1.253.26-1.78-.046l-2.403-1.26c-.164-.09-.348-.16-.464-.304.103-.125.285-.14.434-.195.334-.096.64-.25.948-.4.077-.05.172-.03.247.012.684.356 1.363.723 2.05 1.075.146.077.295-.025.42-.088 2.62-1.344 5.244-2.683 7.864-4.027.097-.043.15-.136.143-.233v-8.18c.01-.11-.06-.21-.168-.255L9.91 1.325a.277.252 0 0 0-.313 0c-2.66 1.36-5.32 2.724-7.98 4.084-.11.045-.183.144-.17.254v8.18a.255.23 0 0 0 .145.23c.71.365 1.42.728 2.132 1.092.4.196.89.312 1.332.162.39-.126.662-.487.655-.862.004-2.71 0-5.422.004-8.132-.01-.12.116-.22.245-.208.34-.002.68-.004 1.022 0 .143-.002.24.127.223.248 0 2.728.004 5.456-.002 8.184 0 .727-.328 1.518-1.07 1.874-.912.43-2.04.338-2.942-.073-.78-.355-1.525-.772-2.292-1.15-.533-.252-.902-.775-.898-1.323V5.622c-.006-.538.345-1.056.864-1.31L8.874.208z"/><path d="M11.203 5.934c1.164-.068 2.41-.04 3.46.48.81.4 1.26 1.236 1.274 2.054-.022.11-.15.17-.265.164-.338 0-.676.004-1.014-.002-.143.005-.227-.115-.245-.23-.097-.392-.332-.78-.738-.968-.623-.283-1.346-.27-2.025-.263-.496.023-1.03.062-1.45.327-.322.2-.42.605-.305.93.108.235.406.31.65.38 1.403.333 2.89.3 4.267.738.57.18 1.127.526 1.322 1.068.255.726.144 1.593-.425 2.176-.463.478-1.135.74-1.805.88-.892.18-1.817.186-2.723.106-.85-.088-1.738-.29-2.395-.818-.562-.443-.837-1.133-.81-1.8.007-.11.13-.19.25-.18.34-.003.68-.004 1.02 0 .136-.01.237.098.244.214.064.373.218.764.576.985.692.405 1.56.377 2.35.39.657-.028 1.394-.036 1.93-.43.28-.224.365-.6.29-.922-.084-.273-.398-.4-.668-.483-1.386-.398-2.89-.253-4.26-.703-.558-.18-1.097-.517-1.31-1.037-.3-.735-.163-1.644.466-2.207.613-.56 1.498-.775 2.34-.852z"/></g></svg>