<svg xmlns="http://www.w3.org/2000/svg" viewBox="0 0 14.244575 9.4624689" height="35.763663" width="53.837768"><g transform="matrix(.53838 0 0 .53838 33.393 -136.026)" fill-rule="evenodd"><ellipse ry="8.788" rx="13.229" cy="261.447" cx="-48.797" fill="#e6e6e6"/><path d="M-58.31 266.65l1.45-9.365h3.35c1.45.115 2.176 1.04 2.176 2.66 0 2.774-1.72 4.393-3.262 4.277h-1.63l-.363 2.43zm2.446-4.162l.453-3.47h1.177c.634 0 1.087.348 1.087 1.042-.09 1.965-.816 2.312-1.63 2.428h-1.088zm4.193 1.734l1.45-9.366h1.72l-.362 2.43h1.63c1.45.114 1.995 1.04 1.813 2.196l-.633 4.74h-1.812l.634-4.278c.09-.578.09-.925-.544-.925h-1.36l-.815 5.202zm5.5 2.43l1.45-9.367h3.353c1.45.115 2.175 1.04 2.175 2.66 0 2.774-1.722 4.393-3.262 4.277h-1.63l-.363 2.43zm2.447-4.164l.453-3.47h1.178c.635 0 1.088.348 1.088 1.042-.09 1.965-.816 2.312-1.63 2.428h-1.09z" fill="#b3b3b3"/></g></svg>