<svg xmlns="http://www.w3.org/2000/svg" xmlns:xlink="http://www.w3.org/1999/xlink" id="svg862" viewBox="0 0 16.368288 16.368288" height="16.38mm" width="16.38mm"><defs id="defs856"><linearGradient gradientTransform="matrix(.21167 0 0 .21167 -276.717 535.71)" id="b" x1="-21.045" y1="114.925" x2="95.274" y2="-1.395" gradientUnits="userSpaceOnUse"><stop offset=".108" stop-color="#c757bc" id="stop1503"/><stop offset=".173" stop-color="#cd5ca9" id="stop1505"/><stop offset=".492" stop-color="#e8744f" id="stop1507"/><stop offset=".716" stop-color="#f88316" id="stop1509"/><stop offset=".823" stop-color="#ff8900" id="stop1511"/></linearGradient><linearGradient id="a" x1="39.893" y1="147.552" x2="96.589" y2="90.856" gradientUnits="userSpaceOnUse"><stop offset=".296" stop-color="#00afff" id="stop1514"/><stop offset=".694" stop-color="#5282ff" id="stop1516"/><stop offset="1" stop-color="#945dff" id="stop1518"/></linearGradient><linearGradient gradientTransform="matrix(.21167 0 0 .21167 -276.717 535.71)" id="c" x1="-1.501" y1="34.501" x2="38.272" y2="-5.273" xlink:href="#a"/></defs><g id="layer1"><g id="g1562" fill="#ccc" stroke-width=".124"><path id="path1724" d="M11.526 0c-.82-.006-1.87.577-2.927 1.61a10.948 12.306 0 0 0-.408.422 9.966 11.2 0 0 0-.27-.282C6.44.275 4.96-.347 4.07.232c-.854.555-1.107 2.203-.748 4.266a10.932 12.287 0 0 0 .12.61c-.208.066-.41.137-.604.213C1.107 6 0 7.066 0 8.17c0 1.14 1.188 2.282 2.993 2.976a9.304 10.458 0 0 0 .443.155 10.708 12.035 0 0 0-.13.658c-.34 2.026-.074 3.636.777 4.187.88.57 2.354-.015 3.79-1.426.113-.113.227-.23.34-.355a10.746 12.078 0 0 0 .444.453c1.39 1.346 2.765 1.89 3.615 1.336.878-.57 1.163-2.3.793-4.403-.03-.16-.062-.324-.1-.49.105-.035.207-.07.306-.107 1.878-.7 3.098-1.83 3.098-2.984 0-1.11-1.142-2.18-2.91-2.865a10.965 12.324 0 0 0-.527-.186 9.96 11.195 0 0 0 .083-.405c.398-2.177.138-3.93-.753-4.507C12.047.07 11.8.002 11.526 0zm.034.785c.136.007.255.042.35.104.55.354.762 1.787.418 3.666a9.238 10.383 0 0 1-.074.366c-.68-.176-1.416-.308-2.188-.39-.45-.72-.916-1.373-1.384-1.94a10.28 11.555 0 0 1 .377-.388c.98-.96 1.91-1.45 2.5-1.42zM4.796.803c.63-.03 1.623.5 2.66 1.535.082.08.164.166.246.255-.476.574-.946 1.227-1.394 1.94-.77.08-1.507.208-2.185.38a10.252 11.523 0 0 1-.112-.566c-.307-1.767-.102-3.1.412-3.435.102-.066.228-.103.374-.11zm3.396 2.35c.323.394.646.833.963 1.308a20.59 23.143 0 0 0-1.934 0c.32-.47.644-.908.972-1.306zm-.008 2.068c.507 0 1.007.023 1.493.065a21.06 23.67 0 0 1 .79 1.415 22.92 25.763 0 0 1 .705 1.476 21.066 23.677 0 0 1-.703 1.49h-.002a22.926 25.768 0 0 1-.785 1.424c-.486.04-.987.058-1.5.058-.508 0-1.004-.017-1.48-.052a19.834 22.293 0 0 1-.8-1.426 19.656 22.092 0 0 1-.7-1.483A19.84 22.298 0 0 1 5.9 6.704a19.65 22.085 0 0 1 .794-1.42c.487-.04.986-.063 1.49-.063zm-2.388.165a20.558 23.106 0 0 0-.502.927 20.663 23.224 0 0 0-.462.95c-.203-.542-.378-1.075-.52-1.59.467-.118.965-.214 1.484-.287zm4.778 0c.522.075 1.022.174 1.492.294-.14.508-.317 1.04-.524 1.584a24.37 27.39 0 0 0-.47-.958 22.238 24.995 0 0 0-.498-.92zm-6.94.48c.204.748.473 1.53.797 2.323-.327.803-.6 1.598-.807 2.356a8.614 9.682 0 0 1-.404-.142c-.8-.307-1.458-.705-1.91-1.14-.406-.39-.61-.78-.61-1.094 0-.67.888-1.524 2.37-2.105a10.09 11.34 0 0 1 .563-.2zm9.11.01c.167.055.33.113.487.173 1.515.586 2.44 1.453 2.44 2.12 0 .712-1 1.635-2.62 2.238-.088.034-.18.066-.274.097-.207-.737-.487-1.52-.83-2.33.328-.79.597-1.565.798-2.298zM11.55 9.083c.218.56.402 1.103.55 1.62-.476.12-.99.218-1.528.29a24.45 27.482 0 0 0 .502-.935 22.213 24.966 0 0 0 .475-.975zm-6.717.028a20.536 23.082 0 0 0 .464.953 20.665 23.227 0 0 0 .514.945c-.535-.067-1.04-.158-1.508-.273.145-.524.323-1.07.53-1.624zm7.457 2.348c.034.152.063.3.09.446.163.93.186 1.77.077 2.428-.097.59-.293.984-.536 1.142-.514.335-1.617-.1-2.807-1.25-.137-.133-.274-.274-.412-.423.463-.566.923-1.226 1.373-1.958.792-.078 1.54-.208 2.217-.384zm-8.176.036c.67.166 1.412.286 2.205.36.452.715.926 1.373 1.404 1.95a8.61 9.678 0 0 1-.31.323c-.636.624-1.273 1.066-1.834 1.29-.504.2-.905.204-1.148.047-.516-.335-.73-1.627-.438-3.36a10.033 11.277 0 0 1 .12-.61zm5.058.416c-.318.487-.64.932-.96 1.328-.332-.402-.663-.846-.985-1.325.313.014.632.02.957.02.334 0 .664-.007.988-.023z"/><path id="path1728" d="M8.184 6.54c.807 0 1.462.737 1.462 1.644 0 .907-.655 1.643-1.462 1.643-.807 0-1.46-.736-1.46-1.643s.653-1.643 1.46-1.643"/></g></g><style id="style1583">.st0{fill:#00AEE6;} .st1{fill:#123962;} .st2{fill:#B1D4E5;} .st3{fill:#2754BA;} .st4{fill:#799EB2;}</style></svg>