<svg xmlns="http://www.w3.org/2000/svg" id="svg862" viewBox="0 0 15.830156 15.830156" height="15.83mm" width="15.83mm"><g id="layer1"><g id="g1562" stroke-width=".112"><path id="path1770" d="M15.21 12.193c-.845.515-5.22 2.623-6.153 3.192-.932.568-1.45.563-2.185.15-.736-.41-5.393-2.614-6.232-3.084-.42-.234-.64-.432-.64-.62V9.958S6.063 8.41 7.042 8c.98-.41 1.318-.426 2.15-.07.834.36 5.815 1.41 6.638 1.764v1.848c0 .185-.19.388-.62.65" fill="#ccc"/><path id="path1772" d="M15.21 10.33c-.845.515-5.22 2.623-6.153 3.19-.932.57-1.45.565-2.185.153-.736-.412-5.393-2.615-6.232-3.085-.84-.47-.856-.793-.032-1.17.824-.38 5.455-2.507 6.434-2.918.98-.41 1.318-.426 2.15-.07.834.36 5.184 2.387 6.007 2.74.823.353.854.644.01 1.16" fill="#e6e6e6"/><path id="path1774" d="M15.21 9.16c-.845.516-5.22 2.624-6.153 3.193-.932.568-1.45.563-2.185.15C6.136 12.094 1.48 9.89.64 9.42.22 9.183 0 8.985 0 8.8V6.924S6.063 5.38 7.042 4.968c.98-.41 1.318-.426 2.15-.07.834.36 5.815 1.41 6.638 1.764V8.51c0 .185-.19.388-.62.65" fill="#ccc"/><path id="path1776" d="M15.21 7.298c-.845.515-5.22 2.623-6.153 3.192-.932.568-1.45.563-2.185.15C6.136 10.23 1.48 8.026.64 7.557c-.84-.47-.856-.793-.032-1.17.824-.38 5.455-2.507 6.434-2.918.98-.41 1.318-.426 2.15-.07.834.36 5.184 2.386 6.007 2.74.823.353.854.644.01 1.16" fill="#e6e6e6"/><path id="path1778" d="M15.21 6.016c-.845.516-5.22 2.623-6.153 3.192-.932.57-1.45.563-2.185.15C6.136 8.95 1.48 6.745.64 6.275.22 6.04 0 5.842 0 5.654V3.78s6.063-1.545 7.042-1.956c.98-.412 1.318-.427 2.15-.07.834.358 5.815 1.41 6.638 1.764v1.847c0 .185-.19.388-.62.65" fill="#ccc"/><path id="path1780" d="M15.21 4.153c-.845.516-5.22 2.623-6.153 3.192-.932.57-1.45.563-2.185.15C6.136 7.086 1.48 4.882.64 4.412c-.84-.468-.856-.79-.032-1.17C1.432 2.864 6.063.736 7.042.324c.98-.41 1.318-.426 2.15-.068.834.357 5.184 2.385 6.007 2.738.823.353.854.644.01 1.16" fill="#e6e6e6"/><path id="path1782" d="M9.85 2.33l-1.362.165-.304.86-.492-.96-1.572-.164 1.173-.495-.352-.76 1.1.503 1.034-.397-.28.787 1.056.463M8.103 6.495l-2.54-1.233 3.64-.655-1.1 1.888M4.58 2.807c1.075 0 1.946.396 1.946.883 0 .488-.87.883-1.945.883-1.073 0-1.944-.395-1.944-.883 0-.487.87-.883 1.945-.883" fill="#fff"/><path id="path1784" d="M11.458 2.565l2.154.997-2.152.996-.002-1.993" fill="#999"/><path id="path1786" d="M9.075 3.67l2.383-1.105.002 1.993-.234.107-2.15-.996" fill="#b3b3b3"/></g></g><style id="style1583">.st0{fill:#00AEE6;} .st1{fill:#123962;} .st2{fill:#B1D4E5;} .st3{fill:#2754BA;} .st4{fill:#799EB2;}</style></svg>